<mxfile host="app.diagrams.net" modified="2024-01-12T02:57:30.520Z" agent="Mozilla/5.0 (X11; Linux x86_64; rv:121.0) Gecko/20100101 Firefox/121.0" etag="QvvmraurPp1eMPIBJCTL" version="22.1.18" type="github">
  <diagram id="prtHgNgQTEPvFCAcTncT" name="Page-1">
    <mxGraphModel dx="1338" dy="2136" grid="1" gridSize="10" guides="1" tooltips="1" connect="1" arrows="1" fold="1" page="1" pageScale="1" pageWidth="827" pageHeight="1169" math="0" shadow="0">
      <root>
        <mxCell id="0" />
        <mxCell id="1" parent="0" />
        <mxCell id="NN635VMZ_w_ewftMYnQy-2" value="&lt;div&gt;消费&lt;/div&gt;" style="swimlane;html=1;childLayout=stackLayout;resizeParent=1;resizeParentMax=0;startSize=20;whiteSpace=wrap;" vertex="1" parent="1">
          <mxGeometry x="260" y="-40" width="360" height="480" as="geometry" />
        </mxCell>
        <mxCell id="NN635VMZ_w_ewftMYnQy-3" value="&lt;div&gt;用户&lt;/div&gt;" style="swimlane;html=1;startSize=20;" vertex="1" parent="NN635VMZ_w_ewftMYnQy-2">
          <mxGeometry y="20" width="120" height="460" as="geometry" />
        </mxCell>
        <mxCell id="NN635VMZ_w_ewftMYnQy-6" value="" style="ellipse;html=1;shape=startState;fillColor=#000000;strokeColor=#ff0000;" vertex="1" parent="NN635VMZ_w_ewftMYnQy-3">
          <mxGeometry x="45" y="30" width="30" height="30" as="geometry" />
        </mxCell>
        <mxCell id="NN635VMZ_w_ewftMYnQy-7" value="" style="edgeStyle=orthogonalEdgeStyle;html=1;verticalAlign=bottom;endArrow=open;endSize=8;strokeColor=#ff0000;rounded=0;" edge="1" source="NN635VMZ_w_ewftMYnQy-6" parent="NN635VMZ_w_ewftMYnQy-3">
          <mxGeometry relative="1" as="geometry">
            <mxPoint x="60" y="120" as="targetPoint" />
          </mxGeometry>
        </mxCell>
        <mxCell id="NN635VMZ_w_ewftMYnQy-4" value="&lt;div&gt;e看牙系统&lt;/div&gt;" style="swimlane;html=1;startSize=20;" vertex="1" parent="NN635VMZ_w_ewftMYnQy-2">
          <mxGeometry x="120" y="20" width="120" height="460" as="geometry" />
        </mxCell>
        <mxCell id="NN635VMZ_w_ewftMYnQy-5" value="&lt;div&gt;自定义开单系统&lt;/div&gt;" style="swimlane;html=1;startSize=20;" vertex="1" parent="NN635VMZ_w_ewftMYnQy-2">
          <mxGeometry x="240" y="20" width="120" height="460" as="geometry" />
        </mxCell>
      </root>
    </mxGraphModel>
  </diagram>
</mxfile>
